<?xml version="1.0" encoding="UTF-8" standalone="no"?>
<svg width="30px" height="45px" viewBox="0 0 30 45" version="1.1" xmlns="http://www.w3.org/2000/svg" xmlns:xlink="http://www.w3.org/1999/xlink">
    <!-- Generator: sketchtool 3.8.3 (29802) - http://www.bohemiancoding.com/sketch -->
    <title>8B6B9DAE-9ADD-422C-AA1F-5D1A00D78489</title>
    <desc>Created with sketchtool.</desc>
    <defs></defs>
    <g id="common-code---desktop-md" stroke="none" stroke-width="1" fill="none" fill-rule="evenodd">
        <g id="landing_page" transform="translate(-68.000000, -35.000000)">
            <g id="hero">
                <g id="nav_bar" transform="translate(68.000000, 0.000000)">
                    <g id="symbols-/-components-/-logo-common-code" transform="translate(0.000000, 35.000000)">
                        <g transform="translate(0.000000, -0.500000)">
                            <g>
                                <polygon id="Fill-1" fill="#FFFFFF" points="0 35.5 5 35.5 5 30.5 0 30.5"></polygon>
                                <polygon id="Fill-2" fill="#EC005A" points="0 25.5 15 25.5 15 20.5 0 20.5"></polygon>
                                <polygon id="Fill-3" fill="#FFFFFF" points="10 35.5 30 35.5 30 30.5 10 30.5"></polygon>
                                <polygon id="Fill-4" fill="#FFFFFF" points="0 45.5 15 45.5 15 40.5 0 40.5"></polygon>
                                <polygon id="Fill-5" fill="#EC005A" points="20 45.5 30 45.5 30 40.5 20 40.5"></polygon>
                                <polygon id="Fill-6" fill="#FFFFFF" points="0 15.5 20 15.5 20 10.5 0 10.5"></polygon>
                                <polygon id="Fill-7" fill="#EC005A" points="25 15.5 30 15.5 30 10.5 25 10.5"></polygon>
                                <polygon id="Fill-8" fill="#FFFFFF" points="15 5.5 30 5.5 30 0.5 15 0.5"></polygon>
                                <polygon id="Fill-9" fill="#EC005A" points="0 5.5 10 5.5 10 0.5 0 0.5"></polygon>
                            </g>
                        </g>
                    </g>
                </g>
            </g>
        </g>
    </g>
</svg>